<?xml version="1.0" encoding="UTF-8"?>
<svg id="Layer_1" data-name="Layer 1" xmlns="http://www.w3.org/2000/svg" viewBox="0 0 1155 317">
  <defs>
    <style>
      .cls-1 {
        fill: #fff;
        stroke-width: 0px;
      }
    </style>
  </defs>
  <path class="cls-1" d="M152.66,200.5h-84.97l-16.15,48.46H0L87.56,13.76h44.91l88.04,235.21h-51.53l-16.32-48.46ZM80.77,161.25h58.8l-29.56-88.04-29.24,88.04Z"/>
  <path class="cls-1" d="M389,163.19c0,26.92-6.11,48.49-18.34,64.7-12.22,16.21-28.73,24.31-49.51,24.31-17.66,0-31.93-6.14-42.81-18.42v82.39h-46.69V74.17h43.29l1.62,17.12c11.31-13.57,26.06-20.35,44.26-20.35,21.54,0,38.29,7.97,50.24,23.91,11.95,15.94,17.93,37.91,17.93,65.91v2.42ZM342.31,159.79c0-16.26-2.88-28.81-8.64-37.64-5.76-8.83-14.14-13.25-25.12-13.25-14.65,0-24.72,5.6-30.21,16.8v71.56c5.71,11.53,15.88,17.29,30.53,17.29,22.29,0,33.44-18.25,33.44-54.76Z"/>
  <path class="cls-1" d="M575.26,163.19c0,26.92-6.11,48.49-18.34,64.7-12.22,16.21-28.73,24.31-49.51,24.31-17.66,0-31.93-6.14-42.81-18.42v82.39h-46.69V74.17h43.29l1.62,17.12c11.31-13.57,26.06-20.35,44.26-20.35,21.54,0,38.29,7.97,50.24,23.91,11.95,15.94,17.93,37.91,17.93,65.91v2.42ZM528.57,159.79c0-16.26-2.88-28.81-8.64-37.64-5.76-8.83-14.14-13.25-25.12-13.25-14.65,0-24.72,5.6-30.21,16.8v71.56c5.71,11.53,15.88,17.29,30.53,17.29,22.29,0,33.44-18.25,33.44-54.76Z"/>
  <path class="cls-1" d="M653.45,248.97h-46.85V.83h46.85v248.13Z"/>
  <path class="cls-1" d="M691.57,28.94c0-7,2.34-12.76,7.03-17.29,4.68-4.52,11.07-6.78,19.14-6.78s14.32,2.26,19.06,6.78c4.74,4.52,7.11,10.29,7.11,17.29s-2.4,12.92-7.19,17.45c-4.79,4.52-11.12,6.79-18.98,6.79s-14.19-2.26-18.98-6.79c-4.79-4.52-7.19-10.34-7.19-17.45ZM741.17,248.97h-46.85V74.17h46.85v174.79Z"/>
  <path class="cls-1" d="M822.59,74.17l1.45,20.19c12.49-15.61,29.24-23.42,50.24-23.42,18.52,0,32.31,5.44,41.36,16.32,9.05,10.88,13.68,27.14,13.89,48.79v112.92h-46.69v-111.79c0-9.91-2.16-17.1-6.46-21.57-4.31-4.47-11.47-6.7-21.49-6.7-13.14,0-23,5.6-29.56,16.8v123.26h-46.69V74.17h43.94Z"/>
  <path class="cls-1" d="M1052.14,94.85l44.1-81.1h55.73l-68.49,116.63,70.27,118.57h-56.38l-45.23-82.39-45.23,82.39h-56.38l70.27-118.57-68.49-116.63h55.73l44.1,81.1Z"/>
</svg>